<mxfile host="Electron" agent="Mozilla/5.0 (Windows NT 10.0; Win64; x64) AppleWebKit/537.36 (KHTML, like Gecko) draw.io/24.7.17 Chrome/128.0.6613.36 Electron/32.0.1 Safari/537.36" version="24.7.17">
  <diagram name="PÃ¡gina-1" id="S3-9EYz1fOgSWe61IR70">
    <mxGraphModel dx="2200" dy="1330" grid="1" gridSize="10" guides="1" tooltips="1" connect="1" arrows="1" fold="1" page="1" pageScale="1" pageWidth="827" pageHeight="1169" math="0" shadow="0">
      <root>
        <mxCell id="0" />
        <mxCell id="1" parent="0" />
        <mxCell id="QIL_8fe3G6reIwrKQYVP-1" value="Llega Auto&lt;div&gt;A1&lt;/div&gt;&lt;div&gt;&lt;br&gt;&lt;/div&gt;" style="text;html=1;align=center;verticalAlign=middle;resizable=0;points=[];autosize=1;strokeColor=none;fillColor=none;" vertex="1" parent="1">
          <mxGeometry x="40" y="180" width="80" height="60" as="geometry" />
        </mxCell>
        <mxCell id="QIL_8fe3G6reIwrKQYVP-2" value="" style="endArrow=none;html=1;rounded=0;" edge="1" parent="1">
          <mxGeometry width="50" height="50" relative="1" as="geometry">
            <mxPoint x="80" y="320" as="sourcePoint" />
            <mxPoint x="80" y="240" as="targetPoint" />
          </mxGeometry>
        </mxCell>
        <mxCell id="QIL_8fe3G6reIwrKQYVP-3" value="" style="endArrow=classic;html=1;rounded=0;" edge="1" parent="1" target="QIL_8fe3G6reIwrKQYVP-4">
          <mxGeometry width="50" height="50" relative="1" as="geometry">
            <mxPoint x="80" y="279.58" as="sourcePoint" />
            <mxPoint x="140" y="279.58" as="targetPoint" />
          </mxGeometry>
        </mxCell>
        <mxCell id="QIL_8fe3G6reIwrKQYVP-45" style="edgeStyle=orthogonalEdgeStyle;rounded=0;orthogonalLoop=1;jettySize=auto;html=1;" edge="1" parent="1" source="QIL_8fe3G6reIwrKQYVP-4">
          <mxGeometry relative="1" as="geometry">
            <mxPoint x="240" y="400" as="targetPoint" />
          </mxGeometry>
        </mxCell>
        <mxCell id="QIL_8fe3G6reIwrKQYVP-4" value="" style="ellipse;whiteSpace=wrap;html=1;aspect=fixed;" vertex="1" parent="1">
          <mxGeometry x="140.0000000000001" y="380" width="40" height="40" as="geometry" />
        </mxCell>
        <mxCell id="QIL_8fe3G6reIwrKQYVP-8" value="Esperando Entrar&lt;div&gt;a Rotonda&amp;nbsp;&lt;/div&gt;" style="text;html=1;align=center;verticalAlign=middle;resizable=0;points=[];autosize=1;strokeColor=none;fillColor=none;" vertex="1" parent="1">
          <mxGeometry x="110" y="430" width="120" height="40" as="geometry" />
        </mxCell>
        <mxCell id="QIL_8fe3G6reIwrKQYVP-9" value="Llega Auto&lt;div&gt;A2&lt;/div&gt;" style="text;html=1;align=center;verticalAlign=middle;resizable=0;points=[];autosize=1;strokeColor=none;fillColor=none;" vertex="1" parent="1">
          <mxGeometry x="40" y="400" width="80" height="40" as="geometry" />
        </mxCell>
        <mxCell id="QIL_8fe3G6reIwrKQYVP-10" value="" style="endArrow=none;html=1;rounded=0;" edge="1" parent="1">
          <mxGeometry width="50" height="50" relative="1" as="geometry">
            <mxPoint x="80" y="530" as="sourcePoint" />
            <mxPoint x="80" y="450" as="targetPoint" />
          </mxGeometry>
        </mxCell>
        <mxCell id="QIL_8fe3G6reIwrKQYVP-11" value="" style="endArrow=classic;html=1;rounded=0;" edge="1" parent="1" target="QIL_8fe3G6reIwrKQYVP-4">
          <mxGeometry width="50" height="50" relative="1" as="geometry">
            <mxPoint x="80" y="490" as="sourcePoint" />
            <mxPoint x="140" y="490" as="targetPoint" />
          </mxGeometry>
        </mxCell>
        <mxCell id="QIL_8fe3G6reIwrKQYVP-13" value="" style="endArrow=none;html=1;rounded=0;" edge="1" parent="1">
          <mxGeometry width="50" height="50" relative="1" as="geometry">
            <mxPoint x="240" y="460" as="sourcePoint" />
            <mxPoint x="240" y="330" as="targetPoint" />
          </mxGeometry>
        </mxCell>
        <mxCell id="QIL_8fe3G6reIwrKQYVP-17" value="Se entra&lt;div&gt;a Rotonda&lt;/div&gt;" style="text;html=1;align=center;verticalAlign=middle;resizable=0;points=[];autosize=1;strokeColor=none;fillColor=none;" vertex="1" parent="1">
          <mxGeometry x="220" y="290" width="80" height="40" as="geometry" />
        </mxCell>
        <mxCell id="QIL_8fe3G6reIwrKQYVP-27" value="" style="endArrow=classic;html=1;rounded=0;" edge="1" parent="1">
          <mxGeometry width="50" height="50" relative="1" as="geometry">
            <mxPoint x="240.0000000000001" y="400" as="sourcePoint" />
            <mxPoint x="300.0000000000001" y="400.42" as="targetPoint" />
          </mxGeometry>
        </mxCell>
        <mxCell id="QIL_8fe3G6reIwrKQYVP-28" value="" style="ellipse;whiteSpace=wrap;html=1;aspect=fixed;" vertex="1" parent="1">
          <mxGeometry x="300.0000000000001" y="380" width="40" height="40" as="geometry" />
        </mxCell>
        <mxCell id="QIL_8fe3G6reIwrKQYVP-29" value="" style="endArrow=none;html=1;rounded=0;" edge="1" parent="1">
          <mxGeometry width="50" height="50" relative="1" as="geometry">
            <mxPoint x="400.0000000000001" y="440" as="sourcePoint" />
            <mxPoint x="400.0000000000001" y="360" as="targetPoint" />
          </mxGeometry>
        </mxCell>
        <mxCell id="QIL_8fe3G6reIwrKQYVP-30" value="" style="endArrow=classic;html=1;rounded=0;" edge="1" parent="1">
          <mxGeometry width="50" height="50" relative="1" as="geometry">
            <mxPoint x="400.0000000000001" y="400" as="sourcePoint" />
            <mxPoint x="460.0000000000001" y="400" as="targetPoint" />
          </mxGeometry>
        </mxCell>
        <mxCell id="QIL_8fe3G6reIwrKQYVP-31" value="" style="endArrow=classic;html=1;rounded=0;" edge="1" parent="1">
          <mxGeometry width="50" height="50" relative="1" as="geometry">
            <mxPoint x="340.0000000000001" y="399.58" as="sourcePoint" />
            <mxPoint x="400.0000000000001" y="400" as="targetPoint" />
          </mxGeometry>
        </mxCell>
        <mxCell id="QIL_8fe3G6reIwrKQYVP-32" style="edgeStyle=orthogonalEdgeStyle;rounded=0;orthogonalLoop=1;jettySize=auto;html=1;curved=1;" edge="1" source="QIL_8fe3G6reIwrKQYVP-34" parent="1">
          <mxGeometry relative="1" as="geometry">
            <mxPoint x="220" y="360" as="targetPoint" />
          </mxGeometry>
        </mxCell>
        <mxCell id="QIL_8fe3G6reIwrKQYVP-33" style="edgeStyle=orthogonalEdgeStyle;rounded=0;orthogonalLoop=1;jettySize=auto;html=1;curved=1;endArrow=none;endFill=0;startArrow=classic;startFill=1;" edge="1" source="QIL_8fe3G6reIwrKQYVP-34" parent="1">
          <mxGeometry relative="1" as="geometry">
            <mxPoint x="420" y="360" as="targetPoint" />
          </mxGeometry>
        </mxCell>
        <mxCell id="QIL_8fe3G6reIwrKQYVP-34" value="ooo&lt;div&gt;oooo&lt;/div&gt;&lt;div&gt;ooo&lt;/div&gt;" style="ellipse;whiteSpace=wrap;html=1;aspect=fixed;" vertex="1" parent="1">
          <mxGeometry x="300" y="220" width="40" height="40" as="geometry" />
        </mxCell>
        <mxCell id="QIL_8fe3G6reIwrKQYVP-35" value="Capacidad&lt;div&gt;de Autos&lt;/div&gt;" style="text;html=1;align=center;verticalAlign=middle;resizable=0;points=[];autosize=1;strokeColor=none;fillColor=none;" vertex="1" parent="1">
          <mxGeometry x="280" y="160" width="80" height="40" as="geometry" />
        </mxCell>
        <mxCell id="QIL_8fe3G6reIwrKQYVP-36" value="Circulando&lt;div&gt;en Rotonda&lt;/div&gt;" style="text;html=1;align=center;verticalAlign=middle;resizable=0;points=[];autosize=1;strokeColor=none;fillColor=none;" vertex="1" parent="1">
          <mxGeometry x="275" y="420" width="90" height="40" as="geometry" />
        </mxCell>
        <mxCell id="QIL_8fe3G6reIwrKQYVP-37" value="Se sale&lt;div&gt;de la&amp;nbsp;&lt;/div&gt;&lt;div&gt;Rotonda&lt;/div&gt;" style="text;html=1;align=center;verticalAlign=middle;resizable=0;points=[];autosize=1;strokeColor=none;fillColor=none;" vertex="1" parent="1">
          <mxGeometry x="345" y="293" width="70" height="60" as="geometry" />
        </mxCell>
        <mxCell id="QIL_8fe3G6reIwrKQYVP-49" style="rounded=0;orthogonalLoop=1;jettySize=auto;html=1;" edge="1" parent="1" source="QIL_8fe3G6reIwrKQYVP-38">
          <mxGeometry relative="1" as="geometry">
            <mxPoint x="550" y="590" as="targetPoint" />
          </mxGeometry>
        </mxCell>
        <mxCell id="QIL_8fe3G6reIwrKQYVP-38" value="" style="ellipse;whiteSpace=wrap;html=1;aspect=fixed;" vertex="1" parent="1">
          <mxGeometry x="460.0000000000001" y="380" width="40" height="40" as="geometry" />
        </mxCell>
        <mxCell id="QIL_8fe3G6reIwrKQYVP-39" value="" style="endArrow=none;html=1;rounded=0;" edge="1" parent="1">
          <mxGeometry width="50" height="50" relative="1" as="geometry">
            <mxPoint x="560.0000000000001" y="330" as="sourcePoint" />
            <mxPoint x="560.0000000000001" y="250" as="targetPoint" />
          </mxGeometry>
        </mxCell>
        <mxCell id="QIL_8fe3G6reIwrKQYVP-40" value="" style="endArrow=classic;html=1;rounded=0;" edge="1" parent="1">
          <mxGeometry width="50" height="50" relative="1" as="geometry">
            <mxPoint x="560.0000000000001" y="290" as="sourcePoint" />
            <mxPoint x="620.0000000000001" y="290" as="targetPoint" />
          </mxGeometry>
        </mxCell>
        <mxCell id="QIL_8fe3G6reIwrKQYVP-41" value="" style="endArrow=classic;html=1;rounded=0;" edge="1" parent="1">
          <mxGeometry width="50" height="50" relative="1" as="geometry">
            <mxPoint x="500.0000000000001" y="399.58" as="sourcePoint" />
            <mxPoint x="550" y="280" as="targetPoint" />
          </mxGeometry>
        </mxCell>
        <mxCell id="QIL_8fe3G6reIwrKQYVP-46" value="Eligiendo&lt;div&gt;Ruta&lt;/div&gt;" style="text;html=1;align=center;verticalAlign=middle;resizable=0;points=[];autosize=1;strokeColor=none;fillColor=none;" vertex="1" parent="1">
          <mxGeometry x="430" y="430" width="70" height="40" as="geometry" />
        </mxCell>
        <mxCell id="QIL_8fe3G6reIwrKQYVP-47" value="" style="endArrow=none;html=1;rounded=0;" edge="1" parent="1">
          <mxGeometry width="50" height="50" relative="1" as="geometry">
            <mxPoint x="560.0000000000001" y="630" as="sourcePoint" />
            <mxPoint x="560.0000000000001" y="550" as="targetPoint" />
          </mxGeometry>
        </mxCell>
        <mxCell id="QIL_8fe3G6reIwrKQYVP-48" value="" style="endArrow=classic;html=1;rounded=0;" edge="1" parent="1">
          <mxGeometry width="50" height="50" relative="1" as="geometry">
            <mxPoint x="560.0000000000001" y="590" as="sourcePoint" />
            <mxPoint x="620.0000000000001" y="590" as="targetPoint" />
          </mxGeometry>
        </mxCell>
        <mxCell id="QIL_8fe3G6reIwrKQYVP-50" value="Se entra&amp;nbsp;&lt;div&gt;Ruta 11&lt;/div&gt;" style="text;html=1;align=center;verticalAlign=middle;resizable=0;points=[];autosize=1;strokeColor=none;fillColor=none;" vertex="1" parent="1">
          <mxGeometry x="530" y="210" width="70" height="40" as="geometry" />
        </mxCell>
        <mxCell id="QIL_8fe3G6reIwrKQYVP-51" value="Se entra&amp;nbsp;&lt;div&gt;Ruta 2&lt;/div&gt;" style="text;html=1;align=center;verticalAlign=middle;resizable=0;points=[];autosize=1;strokeColor=none;fillColor=none;" vertex="1" parent="1">
          <mxGeometry x="540" y="630" width="70" height="40" as="geometry" />
        </mxCell>
        <mxCell id="QIL_8fe3G6reIwrKQYVP-52" value="" style="ellipse;whiteSpace=wrap;html=1;aspect=fixed;" vertex="1" parent="1">
          <mxGeometry x="620.0000000000001" y="270" width="40" height="40" as="geometry" />
        </mxCell>
        <mxCell id="QIL_8fe3G6reIwrKQYVP-53" value="" style="endArrow=none;html=1;rounded=0;" edge="1" parent="1">
          <mxGeometry width="50" height="50" relative="1" as="geometry">
            <mxPoint x="720.0000000000001" y="263" as="sourcePoint" />
            <mxPoint x="720.0000000000001" y="183" as="targetPoint" />
          </mxGeometry>
        </mxCell>
        <mxCell id="QIL_8fe3G6reIwrKQYVP-54" value="" style="endArrow=classic;html=1;rounded=0;" edge="1" parent="1">
          <mxGeometry width="50" height="50" relative="1" as="geometry">
            <mxPoint x="720.0000000000001" y="223" as="sourcePoint" />
            <mxPoint x="780.0000000000001" y="223" as="targetPoint" />
          </mxGeometry>
        </mxCell>
        <mxCell id="QIL_8fe3G6reIwrKQYVP-55" value="" style="endArrow=classic;html=1;rounded=0;" edge="1" parent="1">
          <mxGeometry width="50" height="50" relative="1" as="geometry">
            <mxPoint x="660.0000000000001" y="289.58" as="sourcePoint" />
            <mxPoint x="710" y="230" as="targetPoint" />
          </mxGeometry>
        </mxCell>
        <mxCell id="QIL_8fe3G6reIwrKQYVP-56" value="Transitando Tramo 1&lt;div&gt;Ruta 11&lt;/div&gt;" style="text;html=1;align=center;verticalAlign=middle;resizable=0;points=[];autosize=1;strokeColor=none;fillColor=none;" vertex="1" parent="1">
          <mxGeometry x="575" y="313" width="130" height="40" as="geometry" />
        </mxCell>
        <mxCell id="QIL_8fe3G6reIwrKQYVP-57" value="Transitando&lt;div&gt;Ruta 2&lt;/div&gt;" style="text;html=1;align=center;verticalAlign=middle;resizable=0;points=[];autosize=1;strokeColor=none;fillColor=none;" vertex="1" parent="1">
          <mxGeometry x="610" y="620" width="90" height="40" as="geometry" />
        </mxCell>
        <mxCell id="QIL_8fe3G6reIwrKQYVP-58" value="" style="ellipse;whiteSpace=wrap;html=1;aspect=fixed;" vertex="1" parent="1">
          <mxGeometry x="620.0000000000001" y="570" width="40" height="40" as="geometry" />
        </mxCell>
        <mxCell id="QIL_8fe3G6reIwrKQYVP-61" value="" style="endArrow=classic;html=1;rounded=0;" edge="1" parent="1">
          <mxGeometry width="50" height="50" relative="1" as="geometry">
            <mxPoint x="660.0000000000001" y="589.5799999999999" as="sourcePoint" />
            <mxPoint x="820" y="620" as="targetPoint" />
          </mxGeometry>
        </mxCell>
        <mxCell id="QIL_8fe3G6reIwrKQYVP-62" value="Se llega al&lt;div&gt;Control 1 O1&lt;/div&gt;" style="text;html=1;align=center;verticalAlign=middle;resizable=0;points=[];autosize=1;strokeColor=none;fillColor=none;" vertex="1" parent="1">
          <mxGeometry x="705" y="143" width="90" height="40" as="geometry" />
        </mxCell>
        <mxCell id="QIL_8fe3G6reIwrKQYVP-63" value="" style="ellipse;whiteSpace=wrap;html=1;aspect=fixed;" vertex="1" parent="1">
          <mxGeometry x="780.0000000000001" y="203" width="40" height="40" as="geometry" />
        </mxCell>
        <mxCell id="QIL_8fe3G6reIwrKQYVP-64" value="" style="endArrow=none;html=1;rounded=0;" edge="1" parent="1">
          <mxGeometry width="50" height="50" relative="1" as="geometry">
            <mxPoint x="880.0000000000001" y="263" as="sourcePoint" />
            <mxPoint x="880.0000000000001" y="183" as="targetPoint" />
          </mxGeometry>
        </mxCell>
        <mxCell id="QIL_8fe3G6reIwrKQYVP-65" value="" style="endArrow=classic;html=1;rounded=0;" edge="1" parent="1">
          <mxGeometry width="50" height="50" relative="1" as="geometry">
            <mxPoint x="890" y="230" as="sourcePoint" />
            <mxPoint x="940.0000000000001" y="290" as="targetPoint" />
          </mxGeometry>
        </mxCell>
        <mxCell id="QIL_8fe3G6reIwrKQYVP-66" value="" style="endArrow=classic;html=1;rounded=0;" edge="1" parent="1">
          <mxGeometry width="50" height="50" relative="1" as="geometry">
            <mxPoint x="820.0000000000001" y="222.57999999999998" as="sourcePoint" />
            <mxPoint x="880.0000000000001" y="223" as="targetPoint" />
          </mxGeometry>
        </mxCell>
        <mxCell id="QIL_8fe3G6reIwrKQYVP-67" value="Realizando&lt;div&gt;Control con O1&lt;/div&gt;" style="text;html=1;align=center;verticalAlign=middle;resizable=0;points=[];autosize=1;strokeColor=none;fillColor=none;" vertex="1" parent="1">
          <mxGeometry x="750" y="243" width="100" height="40" as="geometry" />
        </mxCell>
        <mxCell id="QIL_8fe3G6reIwrKQYVP-68" style="edgeStyle=orthogonalEdgeStyle;rounded=0;orthogonalLoop=1;jettySize=auto;html=1;curved=1;" edge="1" source="QIL_8fe3G6reIwrKQYVP-70" parent="1">
          <mxGeometry relative="1" as="geometry">
            <mxPoint x="710" y="193" as="targetPoint" />
          </mxGeometry>
        </mxCell>
        <mxCell id="QIL_8fe3G6reIwrKQYVP-69" style="edgeStyle=orthogonalEdgeStyle;rounded=0;orthogonalLoop=1;jettySize=auto;html=1;curved=1;endArrow=none;endFill=0;startArrow=classic;startFill=1;" edge="1" source="QIL_8fe3G6reIwrKQYVP-70" parent="1">
          <mxGeometry relative="1" as="geometry">
            <mxPoint x="890" y="193" as="targetPoint" />
          </mxGeometry>
        </mxCell>
        <mxCell id="QIL_8fe3G6reIwrKQYVP-70" value="O" style="ellipse;whiteSpace=wrap;html=1;aspect=fixed;" vertex="1" parent="1">
          <mxGeometry x="780" y="73" width="40" height="40" as="geometry" />
        </mxCell>
        <mxCell id="QIL_8fe3G6reIwrKQYVP-71" value="Termina&lt;div&gt;Control O1&lt;/div&gt;" style="text;html=1;align=center;verticalAlign=middle;resizable=0;points=[];autosize=1;strokeColor=none;fillColor=none;" vertex="1" parent="1">
          <mxGeometry x="815" y="143" width="80" height="40" as="geometry" />
        </mxCell>
        <mxCell id="QIL_8fe3G6reIwrKQYVP-72" value="" style="ellipse;whiteSpace=wrap;html=1;aspect=fixed;" vertex="1" parent="1">
          <mxGeometry x="940.0000000000001" y="270" width="40" height="40" as="geometry" />
        </mxCell>
        <mxCell id="QIL_8fe3G6reIwrKQYVP-73" value="" style="endArrow=none;html=1;rounded=0;" edge="1" parent="1">
          <mxGeometry width="50" height="50" relative="1" as="geometry">
            <mxPoint x="1040" y="330" as="sourcePoint" />
            <mxPoint x="1040" y="250" as="targetPoint" />
          </mxGeometry>
        </mxCell>
        <mxCell id="QIL_8fe3G6reIwrKQYVP-74" value="" style="endArrow=classic;html=1;rounded=0;" edge="1" parent="1">
          <mxGeometry width="50" height="50" relative="1" as="geometry">
            <mxPoint x="1040" y="290" as="sourcePoint" />
            <mxPoint x="1100" y="290" as="targetPoint" />
          </mxGeometry>
        </mxCell>
        <mxCell id="QIL_8fe3G6reIwrKQYVP-75" value="" style="endArrow=classic;html=1;rounded=0;" edge="1" parent="1">
          <mxGeometry width="50" height="50" relative="1" as="geometry">
            <mxPoint x="980.0000000000001" y="289.58" as="sourcePoint" />
            <mxPoint x="1040" y="290" as="targetPoint" />
          </mxGeometry>
        </mxCell>
        <mxCell id="QIL_8fe3G6reIwrKQYVP-76" value="Transitando Tramo 2 de&amp;nbsp;&lt;div&gt;Ruta 11&lt;/div&gt;" style="text;html=1;align=center;verticalAlign=middle;resizable=0;points=[];autosize=1;strokeColor=none;fillColor=none;" vertex="1" parent="1">
          <mxGeometry x="900" y="330" width="150" height="40" as="geometry" />
        </mxCell>
        <mxCell id="QIL_8fe3G6reIwrKQYVP-77" value="Se llega al&lt;div&gt;Control 2&lt;/div&gt;" style="text;html=1;align=center;verticalAlign=middle;resizable=0;points=[];autosize=1;strokeColor=none;fillColor=none;" vertex="1" parent="1">
          <mxGeometry x="1035" y="200" width="80" height="40" as="geometry" />
        </mxCell>
        <mxCell id="QIL_8fe3G6reIwrKQYVP-78" value="" style="ellipse;whiteSpace=wrap;html=1;aspect=fixed;" vertex="1" parent="1">
          <mxGeometry x="1100" y="270" width="40" height="40" as="geometry" />
        </mxCell>
        <mxCell id="QIL_8fe3G6reIwrKQYVP-79" value="" style="endArrow=none;html=1;rounded=0;" edge="1" parent="1">
          <mxGeometry width="50" height="50" relative="1" as="geometry">
            <mxPoint x="1200" y="330" as="sourcePoint" />
            <mxPoint x="1200" y="250" as="targetPoint" />
          </mxGeometry>
        </mxCell>
        <mxCell id="QIL_8fe3G6reIwrKQYVP-80" value="" style="endArrow=classic;html=1;rounded=0;" edge="1" parent="1">
          <mxGeometry width="50" height="50" relative="1" as="geometry">
            <mxPoint x="1200" y="290" as="sourcePoint" />
            <mxPoint x="1260" y="290" as="targetPoint" />
          </mxGeometry>
        </mxCell>
        <mxCell id="QIL_8fe3G6reIwrKQYVP-81" value="" style="endArrow=classic;html=1;rounded=0;" edge="1" parent="1">
          <mxGeometry width="50" height="50" relative="1" as="geometry">
            <mxPoint x="1140" y="289.58" as="sourcePoint" />
            <mxPoint x="1200" y="290" as="targetPoint" />
          </mxGeometry>
        </mxCell>
        <mxCell id="QIL_8fe3G6reIwrKQYVP-83" value="" style="endArrow=classic;html=1;rounded=0;" edge="1" parent="1">
          <mxGeometry width="50" height="50" relative="1" as="geometry">
            <mxPoint x="980.0000000000001" y="299.58" as="sourcePoint" />
            <mxPoint x="1040" y="300" as="targetPoint" />
          </mxGeometry>
        </mxCell>
        <mxCell id="QIL_8fe3G6reIwrKQYVP-84" value="Termina&lt;div&gt;COntrol 2&lt;/div&gt;" style="text;html=1;align=center;verticalAlign=middle;resizable=0;points=[];autosize=1;strokeColor=none;fillColor=none;" vertex="1" parent="1">
          <mxGeometry x="1140" y="200" width="70" height="40" as="geometry" />
        </mxCell>
        <mxCell id="QIL_8fe3G6reIwrKQYVP-85" style="edgeStyle=orthogonalEdgeStyle;rounded=0;orthogonalLoop=1;jettySize=auto;html=1;curved=1;" edge="1" source="QIL_8fe3G6reIwrKQYVP-87" parent="1">
          <mxGeometry relative="1" as="geometry">
            <mxPoint x="1030" y="260" as="targetPoint" />
          </mxGeometry>
        </mxCell>
        <mxCell id="QIL_8fe3G6reIwrKQYVP-86" style="edgeStyle=orthogonalEdgeStyle;rounded=0;orthogonalLoop=1;jettySize=auto;html=1;curved=1;endArrow=none;endFill=0;startArrow=classic;startFill=1;" edge="1" source="QIL_8fe3G6reIwrKQYVP-87" parent="1">
          <mxGeometry relative="1" as="geometry">
            <mxPoint x="1210" y="260" as="targetPoint" />
          </mxGeometry>
        </mxCell>
        <mxCell id="QIL_8fe3G6reIwrKQYVP-87" value="O" style="ellipse;whiteSpace=wrap;html=1;aspect=fixed;" vertex="1" parent="1">
          <mxGeometry x="1100" y="140" width="40" height="40" as="geometry" />
        </mxCell>
        <mxCell id="QIL_8fe3G6reIwrKQYVP-88" value="Oficial Libre 1 PC" style="text;html=1;align=center;verticalAlign=middle;resizable=0;points=[];autosize=1;strokeColor=none;fillColor=none;" vertex="1" parent="1">
          <mxGeometry x="730" y="31" width="120" height="30" as="geometry" />
        </mxCell>
        <mxCell id="QIL_8fe3G6reIwrKQYVP-89" value="Oficial SC" style="text;html=1;align=center;verticalAlign=middle;resizable=0;points=[];autosize=1;strokeColor=none;fillColor=none;" vertex="1" parent="1">
          <mxGeometry x="1080" y="100" width="80" height="30" as="geometry" />
        </mxCell>
        <mxCell id="QIL_8fe3G6reIwrKQYVP-90" value="" style="ellipse;whiteSpace=wrap;html=1;aspect=fixed;" vertex="1" parent="1">
          <mxGeometry x="1260" y="270" width="40" height="40" as="geometry" />
        </mxCell>
        <mxCell id="QIL_8fe3G6reIwrKQYVP-91" value="" style="endArrow=none;html=1;rounded=0;" edge="1" parent="1">
          <mxGeometry width="50" height="50" relative="1" as="geometry">
            <mxPoint x="1360" y="330" as="sourcePoint" />
            <mxPoint x="1360" y="250" as="targetPoint" />
          </mxGeometry>
        </mxCell>
        <mxCell id="QIL_8fe3G6reIwrKQYVP-93" value="" style="endArrow=classic;html=1;rounded=0;" edge="1" parent="1">
          <mxGeometry width="50" height="50" relative="1" as="geometry">
            <mxPoint x="1300" y="289.58" as="sourcePoint" />
            <mxPoint x="1360" y="290" as="targetPoint" />
          </mxGeometry>
        </mxCell>
        <mxCell id="QIL_8fe3G6reIwrKQYVP-94" value="Auto Continuando&lt;div&gt;Camino&lt;/div&gt;" style="text;html=1;align=center;verticalAlign=middle;resizable=0;points=[];autosize=1;strokeColor=none;fillColor=none;" vertex="1" parent="1">
          <mxGeometry x="1220" y="320" width="120" height="40" as="geometry" />
        </mxCell>
        <mxCell id="QIL_8fe3G6reIwrKQYVP-95" value="Se llega a la costa&lt;div&gt;por R11&lt;/div&gt;" style="text;html=1;align=center;verticalAlign=middle;resizable=0;points=[];autosize=1;strokeColor=none;fillColor=none;" vertex="1" parent="1">
          <mxGeometry x="1300" y="203" width="120" height="40" as="geometry" />
        </mxCell>
        <mxCell id="QIL_8fe3G6reIwrKQYVP-96" value="" style="endArrow=classic;html=1;rounded=0;" edge="1" parent="1">
          <mxGeometry width="50" height="50" relative="1" as="geometry">
            <mxPoint x="1200" y="300" as="sourcePoint" />
            <mxPoint x="1260" y="300.42" as="targetPoint" />
          </mxGeometry>
        </mxCell>
        <mxCell id="QIL_8fe3G6reIwrKQYVP-97" value="Analizando&lt;div&gt;Pareja de Autos&lt;/div&gt;" style="text;html=1;align=center;verticalAlign=middle;resizable=0;points=[];autosize=1;strokeColor=none;fillColor=none;" vertex="1" parent="1">
          <mxGeometry x="1060" y="310" width="110" height="40" as="geometry" />
        </mxCell>
        <mxCell id="QIL_8fe3G6reIwrKQYVP-98" value="" style="endArrow=none;html=1;rounded=0;" edge="1" parent="1">
          <mxGeometry width="50" height="50" relative="1" as="geometry">
            <mxPoint x="840.0000000000001" y="860" as="sourcePoint" />
            <mxPoint x="840.0000000000001" y="780" as="targetPoint" />
          </mxGeometry>
        </mxCell>
        <mxCell id="QIL_8fe3G6reIwrKQYVP-99" value="" style="endArrow=classic;html=1;rounded=0;" edge="1" parent="1">
          <mxGeometry width="50" height="50" relative="1" as="geometry">
            <mxPoint x="840.0000000000001" y="820" as="sourcePoint" />
            <mxPoint x="900.0000000000001" y="820" as="targetPoint" />
          </mxGeometry>
        </mxCell>
        <mxCell id="QIL_8fe3G6reIwrKQYVP-100" value="" style="endArrow=none;html=1;rounded=0;" edge="1" parent="1">
          <mxGeometry width="50" height="50" relative="1" as="geometry">
            <mxPoint x="840.0000000000001" y="1030" as="sourcePoint" />
            <mxPoint x="840.0000000000001" y="950" as="targetPoint" />
          </mxGeometry>
        </mxCell>
        <mxCell id="QIL_8fe3G6reIwrKQYVP-101" value="" style="endArrow=classic;html=1;rounded=0;" edge="1" parent="1">
          <mxGeometry width="50" height="50" relative="1" as="geometry">
            <mxPoint x="840.0000000000001" y="990" as="sourcePoint" />
            <mxPoint x="900.0000000000001" y="990" as="targetPoint" />
          </mxGeometry>
        </mxCell>
        <mxCell id="QIL_8fe3G6reIwrKQYVP-102" value="" style="endArrow=none;html=1;rounded=0;" edge="1" parent="1">
          <mxGeometry width="50" height="50" relative="1" as="geometry">
            <mxPoint x="714.5000000000001" y="403" as="sourcePoint" />
            <mxPoint x="714.5000000000001" y="323" as="targetPoint" />
          </mxGeometry>
        </mxCell>
        <mxCell id="QIL_8fe3G6reIwrKQYVP-103" value="" style="endArrow=classic;html=1;rounded=0;" edge="1" parent="1">
          <mxGeometry width="50" height="50" relative="1" as="geometry">
            <mxPoint x="714.5000000000001" y="363" as="sourcePoint" />
            <mxPoint x="774.5000000000001" y="363" as="targetPoint" />
          </mxGeometry>
        </mxCell>
        <mxCell id="QIL_8fe3G6reIwrKQYVP-104" value="Se llega al&lt;div&gt;Control 1 O2&lt;/div&gt;" style="text;html=1;align=center;verticalAlign=middle;resizable=0;points=[];autosize=1;strokeColor=none;fillColor=none;" vertex="1" parent="1">
          <mxGeometry x="665" y="280" width="90" height="40" as="geometry" />
        </mxCell>
        <mxCell id="QIL_8fe3G6reIwrKQYVP-105" value="" style="ellipse;whiteSpace=wrap;html=1;aspect=fixed;" vertex="1" parent="1">
          <mxGeometry x="774.5000000000001" y="343" width="40" height="40" as="geometry" />
        </mxCell>
        <mxCell id="QIL_8fe3G6reIwrKQYVP-106" value="" style="endArrow=none;html=1;rounded=0;" edge="1" parent="1">
          <mxGeometry width="50" height="50" relative="1" as="geometry">
            <mxPoint x="874.5000000000001" y="403" as="sourcePoint" />
            <mxPoint x="874.5000000000001" y="323" as="targetPoint" />
          </mxGeometry>
        </mxCell>
        <mxCell id="QIL_8fe3G6reIwrKQYVP-107" value="" style="endArrow=classic;html=1;rounded=0;" edge="1" parent="1">
          <mxGeometry width="50" height="50" relative="1" as="geometry">
            <mxPoint x="814.5000000000001" y="362.58" as="sourcePoint" />
            <mxPoint x="874.5000000000001" y="363" as="targetPoint" />
          </mxGeometry>
        </mxCell>
        <mxCell id="QIL_8fe3G6reIwrKQYVP-108" style="edgeStyle=orthogonalEdgeStyle;rounded=0;orthogonalLoop=1;jettySize=auto;html=1;curved=1;" edge="1" parent="1">
          <mxGeometry relative="1" as="geometry">
            <mxPoint x="690" y="380" as="targetPoint" />
            <mxPoint x="774.5" y="464" as="sourcePoint" />
          </mxGeometry>
        </mxCell>
        <mxCell id="QIL_8fe3G6reIwrKQYVP-109" style="edgeStyle=orthogonalEdgeStyle;rounded=0;orthogonalLoop=1;jettySize=auto;html=1;curved=1;endArrow=none;endFill=0;startArrow=classic;startFill=1;" edge="1" parent="1">
          <mxGeometry relative="1" as="geometry">
            <mxPoint x="890" y="370" as="targetPoint" />
            <mxPoint x="814.5" y="464" as="sourcePoint" />
          </mxGeometry>
        </mxCell>
        <mxCell id="QIL_8fe3G6reIwrKQYVP-110" value="O" style="ellipse;whiteSpace=wrap;html=1;aspect=fixed;" vertex="1" parent="1">
          <mxGeometry x="774.5" y="440" width="40" height="40" as="geometry" />
        </mxCell>
        <mxCell id="QIL_8fe3G6reIwrKQYVP-111" value="Termina&lt;div&gt;Control O2&lt;/div&gt;" style="text;html=1;align=center;verticalAlign=middle;resizable=0;points=[];autosize=1;strokeColor=none;fillColor=none;" vertex="1" parent="1">
          <mxGeometry x="835" y="280" width="80" height="40" as="geometry" />
        </mxCell>
        <mxCell id="QIL_8fe3G6reIwrKQYVP-112" value="Oficial Libre 2 PC" style="text;html=1;align=center;verticalAlign=middle;resizable=0;points=[];autosize=1;strokeColor=none;fillColor=none;" vertex="1" parent="1">
          <mxGeometry x="650" y="460" width="120" height="30" as="geometry" />
        </mxCell>
        <mxCell id="QIL_8fe3G6reIwrKQYVP-113" value="Realizando&lt;div&gt;Control con O2&lt;/div&gt;" style="text;html=1;align=center;verticalAlign=middle;resizable=0;points=[];autosize=1;strokeColor=none;fillColor=none;" vertex="1" parent="1">
          <mxGeometry x="735" y="390" width="100" height="40" as="geometry" />
        </mxCell>
        <mxCell id="QIL_8fe3G6reIwrKQYVP-114" value="" style="endArrow=classic;html=1;rounded=0;exitX=1;exitY=1;exitDx=0;exitDy=0;" edge="1" parent="1" source="QIL_8fe3G6reIwrKQYVP-52">
          <mxGeometry width="50" height="50" relative="1" as="geometry">
            <mxPoint x="670.0000000000001" y="299.58" as="sourcePoint" />
            <mxPoint x="710" y="390" as="targetPoint" />
          </mxGeometry>
        </mxCell>
        <mxCell id="QIL_8fe3G6reIwrKQYVP-115" value="" style="endArrow=classic;html=1;rounded=0;" edge="1" parent="1" target="QIL_8fe3G6reIwrKQYVP-72">
          <mxGeometry width="50" height="50" relative="1" as="geometry">
            <mxPoint x="880" y="350" as="sourcePoint" />
            <mxPoint x="950.0000000000001" y="440" as="targetPoint" />
          </mxGeometry>
        </mxCell>
        <mxCell id="QIL_8fe3G6reIwrKQYVP-116" value="" style="endArrow=none;html=1;rounded=0;" edge="1" parent="1">
          <mxGeometry width="50" height="50" relative="1" as="geometry">
            <mxPoint x="840" y="660" as="sourcePoint" />
            <mxPoint x="840" y="580" as="targetPoint" />
          </mxGeometry>
        </mxCell>
        <mxCell id="QIL_8fe3G6reIwrKQYVP-117" value="" style="endArrow=classic;html=1;rounded=0;" edge="1" parent="1">
          <mxGeometry width="50" height="50" relative="1" as="geometry">
            <mxPoint x="840" y="620" as="sourcePoint" />
            <mxPoint x="900" y="620" as="targetPoint" />
          </mxGeometry>
        </mxCell>
        <mxCell id="QIL_8fe3G6reIwrKQYVP-118" value="" style="endArrow=classic;html=1;rounded=0;" edge="1" parent="1" source="QIL_8fe3G6reIwrKQYVP-58">
          <mxGeometry width="50" height="50" relative="1" as="geometry">
            <mxPoint x="670.0000000000001" y="599.5799999999999" as="sourcePoint" />
            <mxPoint x="820" y="820" as="targetPoint" />
          </mxGeometry>
        </mxCell>
        <mxCell id="QIL_8fe3G6reIwrKQYVP-119" value="" style="endArrow=classic;html=1;rounded=0;exitX=1;exitY=1;exitDx=0;exitDy=0;" edge="1" parent="1" source="QIL_8fe3G6reIwrKQYVP-58">
          <mxGeometry width="50" height="50" relative="1" as="geometry">
            <mxPoint x="680.0000000000001" y="609.5799999999999" as="sourcePoint" />
            <mxPoint x="810" y="990" as="targetPoint" />
          </mxGeometry>
        </mxCell>
        <mxCell id="QIL_8fe3G6reIwrKQYVP-120" value="Se llega a&lt;div&gt;Cabina 1&lt;/div&gt;" style="text;html=1;align=center;verticalAlign=middle;resizable=0;points=[];autosize=1;strokeColor=none;fillColor=none;" vertex="1" parent="1">
          <mxGeometry x="835" y="545" width="80" height="40" as="geometry" />
        </mxCell>
        <mxCell id="QIL_8fe3G6reIwrKQYVP-121" value="Se llega a&lt;div&gt;Cabina 2&lt;/div&gt;" style="text;html=1;align=center;verticalAlign=middle;resizable=0;points=[];autosize=1;strokeColor=none;fillColor=none;" vertex="1" parent="1">
          <mxGeometry x="835" y="740" width="80" height="40" as="geometry" />
        </mxCell>
        <mxCell id="QIL_8fe3G6reIwrKQYVP-122" value="Se llega a&lt;div&gt;Cabina 3&lt;/div&gt;" style="text;html=1;align=center;verticalAlign=middle;resizable=0;points=[];autosize=1;strokeColor=none;fillColor=none;" vertex="1" parent="1">
          <mxGeometry x="835" y="920" width="80" height="40" as="geometry" />
        </mxCell>
        <mxCell id="QIL_8fe3G6reIwrKQYVP-123" value="" style="ellipse;whiteSpace=wrap;html=1;aspect=fixed;" vertex="1" parent="1">
          <mxGeometry x="900.0000000000001" y="600" width="40" height="40" as="geometry" />
        </mxCell>
        <mxCell id="QIL_8fe3G6reIwrKQYVP-124" value="" style="endArrow=none;html=1;rounded=0;" edge="1" parent="1">
          <mxGeometry width="50" height="50" relative="1" as="geometry">
            <mxPoint x="1000.0000000000001" y="660" as="sourcePoint" />
            <mxPoint x="1000.0000000000001" y="580" as="targetPoint" />
          </mxGeometry>
        </mxCell>
        <mxCell id="QIL_8fe3G6reIwrKQYVP-125" value="" style="endArrow=classic;html=1;rounded=0;" edge="1" parent="1" target="QIL_8fe3G6reIwrKQYVP-167">
          <mxGeometry width="50" height="50" relative="1" as="geometry">
            <mxPoint x="1000.0000000000001" y="620" as="sourcePoint" />
            <mxPoint x="1060" y="620" as="targetPoint" />
          </mxGeometry>
        </mxCell>
        <mxCell id="QIL_8fe3G6reIwrKQYVP-126" value="" style="endArrow=classic;html=1;rounded=0;" edge="1" parent="1">
          <mxGeometry width="50" height="50" relative="1" as="geometry">
            <mxPoint x="940.0000000000001" y="619.5799999999999" as="sourcePoint" />
            <mxPoint x="1000.0000000000001" y="620" as="targetPoint" />
          </mxGeometry>
        </mxCell>
        <mxCell id="QIL_8fe3G6reIwrKQYVP-127" value="" style="ellipse;whiteSpace=wrap;html=1;aspect=fixed;" vertex="1" parent="1">
          <mxGeometry x="900.0000000000001" y="800" width="40" height="40" as="geometry" />
        </mxCell>
        <mxCell id="QIL_8fe3G6reIwrKQYVP-128" value="" style="endArrow=none;html=1;rounded=0;" edge="1" parent="1">
          <mxGeometry width="50" height="50" relative="1" as="geometry">
            <mxPoint x="1000.0000000000001" y="860" as="sourcePoint" />
            <mxPoint x="1000.0000000000001" y="780" as="targetPoint" />
          </mxGeometry>
        </mxCell>
        <mxCell id="QIL_8fe3G6reIwrKQYVP-129" value="" style="endArrow=classic;html=1;rounded=0;" edge="1" parent="1" target="QIL_8fe3G6reIwrKQYVP-167">
          <mxGeometry width="50" height="50" relative="1" as="geometry">
            <mxPoint x="1000.0000000000001" y="820" as="sourcePoint" />
            <mxPoint x="1060" y="820" as="targetPoint" />
          </mxGeometry>
        </mxCell>
        <mxCell id="QIL_8fe3G6reIwrKQYVP-130" value="" style="endArrow=classic;html=1;rounded=0;" edge="1" parent="1">
          <mxGeometry width="50" height="50" relative="1" as="geometry">
            <mxPoint x="940.0000000000001" y="819.5799999999999" as="sourcePoint" />
            <mxPoint x="1000.0000000000001" y="820" as="targetPoint" />
          </mxGeometry>
        </mxCell>
        <mxCell id="QIL_8fe3G6reIwrKQYVP-131" value="" style="ellipse;whiteSpace=wrap;html=1;aspect=fixed;" vertex="1" parent="1">
          <mxGeometry x="900.0000000000001" y="970" width="40" height="40" as="geometry" />
        </mxCell>
        <mxCell id="QIL_8fe3G6reIwrKQYVP-132" value="" style="endArrow=none;html=1;rounded=0;" edge="1" parent="1">
          <mxGeometry width="50" height="50" relative="1" as="geometry">
            <mxPoint x="1000.0000000000001" y="1030" as="sourcePoint" />
            <mxPoint x="1000.0000000000001" y="950" as="targetPoint" />
          </mxGeometry>
        </mxCell>
        <mxCell id="QIL_8fe3G6reIwrKQYVP-133" value="" style="endArrow=classic;html=1;rounded=0;" edge="1" parent="1" target="QIL_8fe3G6reIwrKQYVP-167">
          <mxGeometry width="50" height="50" relative="1" as="geometry">
            <mxPoint x="1000.0000000000001" y="990" as="sourcePoint" />
            <mxPoint x="1060" y="990" as="targetPoint" />
          </mxGeometry>
        </mxCell>
        <mxCell id="QIL_8fe3G6reIwrKQYVP-134" value="" style="endArrow=classic;html=1;rounded=0;" edge="1" parent="1">
          <mxGeometry width="50" height="50" relative="1" as="geometry">
            <mxPoint x="940.0000000000001" y="989.5799999999999" as="sourcePoint" />
            <mxPoint x="1000.0000000000001" y="990" as="targetPoint" />
          </mxGeometry>
        </mxCell>
        <mxCell id="QIL_8fe3G6reIwrKQYVP-135" style="edgeStyle=orthogonalEdgeStyle;rounded=0;orthogonalLoop=1;jettySize=auto;html=1;curved=1;" edge="1" source="QIL_8fe3G6reIwrKQYVP-137" parent="1">
          <mxGeometry relative="1" as="geometry">
            <mxPoint x="830" y="600" as="targetPoint" />
          </mxGeometry>
        </mxCell>
        <mxCell id="QIL_8fe3G6reIwrKQYVP-136" style="edgeStyle=orthogonalEdgeStyle;rounded=0;orthogonalLoop=1;jettySize=auto;html=1;curved=1;endArrow=none;endFill=0;startArrow=classic;startFill=1;" edge="1" source="QIL_8fe3G6reIwrKQYVP-137" parent="1">
          <mxGeometry relative="1" as="geometry">
            <mxPoint x="1010" y="600" as="targetPoint" />
          </mxGeometry>
        </mxCell>
        <mxCell id="QIL_8fe3G6reIwrKQYVP-137" value="O" style="ellipse;whiteSpace=wrap;html=1;aspect=fixed;" vertex="1" parent="1">
          <mxGeometry x="900" y="480" width="40" height="40" as="geometry" />
        </mxCell>
        <mxCell id="QIL_8fe3G6reIwrKQYVP-138" style="edgeStyle=orthogonalEdgeStyle;rounded=0;orthogonalLoop=1;jettySize=auto;html=1;curved=1;" edge="1" parent="1" source="QIL_8fe3G6reIwrKQYVP-140">
          <mxGeometry relative="1" as="geometry">
            <mxPoint x="827" y="790" as="targetPoint" />
          </mxGeometry>
        </mxCell>
        <mxCell id="QIL_8fe3G6reIwrKQYVP-139" style="edgeStyle=orthogonalEdgeStyle;rounded=0;orthogonalLoop=1;jettySize=auto;html=1;curved=1;endArrow=none;endFill=0;startArrow=classic;startFill=1;" edge="1" parent="1" source="QIL_8fe3G6reIwrKQYVP-140">
          <mxGeometry relative="1" as="geometry">
            <mxPoint x="1007" y="790" as="targetPoint" />
          </mxGeometry>
        </mxCell>
        <mxCell id="QIL_8fe3G6reIwrKQYVP-140" value="O" style="ellipse;whiteSpace=wrap;html=1;aspect=fixed;" vertex="1" parent="1">
          <mxGeometry x="897" y="670" width="40" height="40" as="geometry" />
        </mxCell>
        <mxCell id="QIL_8fe3G6reIwrKQYVP-141" style="edgeStyle=orthogonalEdgeStyle;rounded=0;orthogonalLoop=1;jettySize=auto;html=1;curved=1;" edge="1" source="QIL_8fe3G6reIwrKQYVP-146" parent="1">
          <mxGeometry relative="1" as="geometry">
            <mxPoint x="829" y="987" as="targetPoint" />
          </mxGeometry>
        </mxCell>
        <mxCell id="QIL_8fe3G6reIwrKQYVP-142" style="edgeStyle=orthogonalEdgeStyle;rounded=0;orthogonalLoop=1;jettySize=auto;html=1;curved=1;endArrow=none;endFill=0;startArrow=classic;startFill=1;" edge="1" source="QIL_8fe3G6reIwrKQYVP-143" parent="1">
          <mxGeometry relative="1" as="geometry">
            <mxPoint x="1009" y="987" as="targetPoint" />
          </mxGeometry>
        </mxCell>
        <mxCell id="QIL_8fe3G6reIwrKQYVP-143" value="O" style="ellipse;whiteSpace=wrap;html=1;aspect=fixed;" vertex="1" parent="1">
          <mxGeometry x="899" y="867" width="40" height="40" as="geometry" />
        </mxCell>
        <mxCell id="QIL_8fe3G6reIwrKQYVP-144" value="Cabina 1 Libre" style="text;html=1;align=center;verticalAlign=middle;resizable=0;points=[];autosize=1;strokeColor=none;fillColor=none;" vertex="1" parent="1">
          <mxGeometry x="880" y="448" width="100" height="30" as="geometry" />
        </mxCell>
        <mxCell id="QIL_8fe3G6reIwrKQYVP-145" value="Cabina 1 Libre" style="text;html=1;align=center;verticalAlign=middle;resizable=0;points=[];autosize=1;strokeColor=none;fillColor=none;" vertex="1" parent="1">
          <mxGeometry x="950" y="670" width="100" height="30" as="geometry" />
        </mxCell>
        <mxCell id="QIL_8fe3G6reIwrKQYVP-147" value="" style="edgeStyle=orthogonalEdgeStyle;rounded=0;orthogonalLoop=1;jettySize=auto;html=1;curved=1;" edge="1" parent="1" source="QIL_8fe3G6reIwrKQYVP-143" target="QIL_8fe3G6reIwrKQYVP-146">
          <mxGeometry relative="1" as="geometry">
            <mxPoint x="829" y="987" as="targetPoint" />
            <mxPoint x="899" y="887" as="sourcePoint" />
          </mxGeometry>
        </mxCell>
        <mxCell id="QIL_8fe3G6reIwrKQYVP-146" value="Cabina 1 Libre" style="text;html=1;align=center;verticalAlign=middle;resizable=0;points=[];autosize=1;strokeColor=none;fillColor=none;" vertex="1" parent="1">
          <mxGeometry x="780" y="872" width="100" height="30" as="geometry" />
        </mxCell>
        <mxCell id="QIL_8fe3G6reIwrKQYVP-148" value="Cobrando 1" style="text;html=1;align=center;verticalAlign=middle;resizable=0;points=[];autosize=1;strokeColor=none;fillColor=none;" vertex="1" parent="1">
          <mxGeometry x="850" y="635" width="90" height="30" as="geometry" />
        </mxCell>
        <mxCell id="QIL_8fe3G6reIwrKQYVP-150" value="Cobrando 2" style="text;html=1;align=center;verticalAlign=middle;resizable=0;points=[];autosize=1;strokeColor=none;fillColor=none;" vertex="1" parent="1">
          <mxGeometry x="872" y="840" width="90" height="30" as="geometry" />
        </mxCell>
        <mxCell id="QIL_8fe3G6reIwrKQYVP-151" value="Cobrando 3" style="text;html=1;align=center;verticalAlign=middle;resizable=0;points=[];autosize=1;strokeColor=none;fillColor=none;" vertex="1" parent="1">
          <mxGeometry x="874" y="1030" width="90" height="30" as="geometry" />
        </mxCell>
        <mxCell id="QIL_8fe3G6reIwrKQYVP-152" value="Se cobro en&lt;div&gt;Cabina 1&lt;/div&gt;" style="text;html=1;align=center;verticalAlign=middle;resizable=0;points=[];autosize=1;strokeColor=none;fillColor=none;" vertex="1" parent="1">
          <mxGeometry x="915" y="543" width="90" height="40" as="geometry" />
        </mxCell>
        <mxCell id="QIL_8fe3G6reIwrKQYVP-153" value="Se cobro en&lt;div&gt;Cabina 2&lt;/div&gt;" style="text;html=1;align=center;verticalAlign=middle;resizable=0;points=[];autosize=1;strokeColor=none;fillColor=none;" vertex="1" parent="1">
          <mxGeometry x="915" y="750" width="90" height="40" as="geometry" />
        </mxCell>
        <mxCell id="QIL_8fe3G6reIwrKQYVP-154" value="Se cobro en&lt;div&gt;Cabina 3&lt;/div&gt;" style="text;html=1;align=center;verticalAlign=middle;resizable=0;points=[];autosize=1;strokeColor=none;fillColor=none;" vertex="1" parent="1">
          <mxGeometry x="915" y="920" width="90" height="40" as="geometry" />
        </mxCell>
        <mxCell id="QIL_8fe3G6reIwrKQYVP-167" value="" style="ellipse;whiteSpace=wrap;html=1;aspect=fixed;" vertex="1" parent="1">
          <mxGeometry x="1160" y="800" width="40" height="40" as="geometry" />
        </mxCell>
        <mxCell id="QIL_8fe3G6reIwrKQYVP-168" value="Auto Continuando&lt;div&gt;Ruta&lt;/div&gt;" style="text;html=1;align=center;verticalAlign=middle;resizable=0;points=[];autosize=1;strokeColor=none;fillColor=none;" vertex="1" parent="1">
          <mxGeometry x="1130" y="872" width="120" height="40" as="geometry" />
        </mxCell>
        <mxCell id="QIL_8fe3G6reIwrKQYVP-169" value="" style="ellipse;whiteSpace=wrap;html=1;aspect=fixed;" vertex="1" parent="1">
          <mxGeometry x="1160" y="800" width="40" height="40" as="geometry" />
        </mxCell>
        <mxCell id="QIL_8fe3G6reIwrKQYVP-170" value="" style="endArrow=none;html=1;rounded=0;" edge="1" parent="1">
          <mxGeometry width="50" height="50" relative="1" as="geometry">
            <mxPoint x="1260" y="860" as="sourcePoint" />
            <mxPoint x="1260" y="780" as="targetPoint" />
          </mxGeometry>
        </mxCell>
        <mxCell id="QIL_8fe3G6reIwrKQYVP-172" value="" style="endArrow=classic;html=1;rounded=0;" edge="1" parent="1">
          <mxGeometry width="50" height="50" relative="1" as="geometry">
            <mxPoint x="1200" y="819.5799999999999" as="sourcePoint" />
            <mxPoint x="1260" y="820" as="targetPoint" />
          </mxGeometry>
        </mxCell>
        <mxCell id="QIL_8fe3G6reIwrKQYVP-173" value="Se llega a la costa&lt;div&gt;por R2&lt;/div&gt;" style="text;html=1;align=center;verticalAlign=middle;resizable=0;points=[];autosize=1;strokeColor=none;fillColor=none;" vertex="1" parent="1">
          <mxGeometry x="1200" y="730" width="120" height="40" as="geometry" />
        </mxCell>
      </root>
    </mxGraphModel>
  </diagram>
</mxfile>
